<?xml version="1.0" encoding="utf-8"?>
<!-- Generator: Adobe Illustrator 18.1.1, SVG Export Plug-In . SVG Version: 6.00 Build 0)  -->
<svg version="1.1" id="Layer_1" xmlns="http://www.w3.org/2000/svg" xmlns:xlink="http://www.w3.org/1999/xlink" x="0px" y="0px"
	 viewBox="0 0 216 216" enable-background="new 0 0 216 216" xml:space="preserve">
<g>
	<defs>
		<rect id="SVGID_1_" width="216" height="216"/>
	</defs>
	<clipPath id="SVGID_2_">
		<use xlink:href="#SVGID_1_"  overflow="visible"/>
	</clipPath>
	<path clip-path="url(#SVGID_2_)" fill="#00A4E4" d="M79.3,101.5c-1.4,0-2.6-1.2-2.6-2.6c0-1.4,1.2-2.6,2.6-2.6
		c1.4,0,2.6,1.2,2.6,2.6C81.9,100.3,80.7,101.5,79.3,101.5"/>
	<path clip-path="url(#SVGID_2_)" fill="#00A4E4" d="M79.3,97.1c1,0,1.8,0.8,1.8,1.8s-0.8,1.8-1.8,1.8c-1,0-1.8-0.8-1.8-1.8
		S78.3,97.1,79.3,97.1 M79.3,95.4c-1.9,0-3.4,1.5-3.4,3.4c0,1.9,1.5,3.4,3.4,3.4c1.9,0,3.4-1.5,3.4-3.4C82.7,97,81.2,95.4,79.3,95.4
		"/>
	<path clip-path="url(#SVGID_2_)" fill="#00A4E4" d="M132.9,101.5c-1.4,0-2.6-1.2-2.6-2.6c0-1.4,1.2-2.6,2.6-2.6
		c1.4,0,2.6,1.2,2.6,2.6C135.5,100.3,134.3,101.5,132.9,101.5"/>
	<path clip-path="url(#SVGID_2_)" fill="#00A4E4" d="M132.9,97.1c1,0,1.8,0.8,1.8,1.8s-0.8,1.8-1.8,1.8c-1,0-1.8-0.8-1.8-1.8
		S131.9,97.1,132.9,97.1 M132.9,95.4c-1.9,0-3.4,1.5-3.4,3.4c0,1.9,1.5,3.4,3.4,3.4c1.9,0,3.4-1.5,3.4-3.4
		C136.3,97,134.8,95.4,132.9,95.4"/>
	<path clip-path="url(#SVGID_2_)" fill="#00A4E4" d="M182.6,49.4c0,0,2.4-4,9.4-2c-4.2-8.3-39.4-34.4-57.1-37.7
		c-0.6-1.7,4.1-2,2.3-2.7c-5.8-2.2-22-0.9-22-0.9s-3.3-5.5-7.1-6.1c3.2,3.2-3.3,5.3-3.3,5.3S98,1.9,92,1.6c8,2.7-1,4.8-1,4.8
		s-42.3,2.1-64.5,38c6.4,1,4.3,5.7,4.3,5.7S19,66.3,18.3,73.9c1-0.2,3.5-2.9,4.1-1.8c-8.8,15.9-4.8,64,1.7,75c2-0.6,4.9-1.6,6.7-2.8
		c2.3,18.5,14,39.6,17.2,41.5c0.4-4.3,10.8-5.3,12.2-2.8c0.7,1.3,16,17.6,23.2,18.4c0.2-4,8.2-5,8.2-5s12.3,8.6,18.3,19.5
		c9-13.6,22.5-21.5,22.5-21.5s7,0.6,7.6,4.2c19.2-7.7,31.4-30.4,31.4-30.4s4.1-0.7,5.9,3.9c8.3-5.3,10.8-24.8,10.8-24.8
		s2.3,1.5,7.9,4.8C206.9,71.3,182.6,49.4,182.6,49.4 M121,111.3c-0.1,4.9-2.4,6.4-13.8,6.4c-11.4,0-14-1.6-13.9-7.4
		c-10.9,0.7-23.1,2.6-37.8,6.1c0.1-7.7-2.5-15.8,0.7-24.1c4.1-10.5,18.6-23.1,18.4-15c8.4-1.5,17.2-17.6,17.2-17.6s6.1,4,7.6,8.6
		c11.1-6.7,16.8-21.4,16.8-21.4s8.5,16.7,22.8,23.7c0.6-3.1,1.9-6.1,1.9-6.1c27.3,12.4,10.3,38,22.8,57.1
		C147.8,117,134.7,113.2,121,111.3"/>
</g>
</svg>
